<?xml version="1.0" encoding="utf-8"?>
<!-- Generator: Adobe Illustrator 21.1.0, SVG Export Plug-In . SVG Version: 6.00 Build 0)  -->
<svg version="1.1" id="Layer_1" xmlns="http://www.w3.org/2000/svg" xmlns:xlink="http://www.w3.org/1999/xlink" x="0px" y="0px"
	 viewBox="0 0 57 55" style="enable-background:new 0 0 57 55;" xml:space="preserve">
<style type="text/css">
	.st0{fill:#FFFFFF;}
</style>
<g transform="translate(0.000000,511.000000) scale(0.100000,-0.100000)">
	<path class="st0" d="M252.6,4960.2c-61.2-6.6-112.1-49.4-129.2-108.4c-9-31.1-7.4-66,4.5-96.3c7.2-18.3,21.5-40.9,28.1-44.2
		c2.7-1.4,3.8-1.4,112.1-1.4c97.3,0,109.7,0.1,112,1.1c1.8,0.7,3.9,2.5,6.3,5.5c14.3,17.9,25.5,42.3,30.2,66.2
		c1.7,8.7,1.8,10.6,1.8,26.9c0.1,19.2-0.5,23.9-4.4,38.9c-5.1,19.5-14.9,39-27.5,55.1c-5.9,7.4-20.1,21.3-27.7,26.9
		c-20.2,15-41.8,24.2-66.6,28.4C283,4960.6,261.8,4961.2,252.6,4960.2z M293.9,4937.7c22.1-4.7,41-13.9,58.4-28.5
		c34.2-28.7,51.4-74.8,44.4-118.8c-3.2-19.7-10.9-38.8-22-54.6l-3.4-4.9l-103.2,0.1l-103.2,0.2l-4,5.7c-5.5,8-12.9,23.1-16,32.9
		c-18.5,56.6,3.4,117.4,53.8,150c12.4,8.1,30.4,15.2,45.2,18c10.7,2,10.7,2,27.1,1.8C283.7,4939.5,286.8,4939.2,293.9,4937.7z"/>
	<path class="st0" d="M317.2,4872.9c-5-5.1-68.7-84.7-70.1-87.6c-4.4-9-1.7-21.4,6-28.1c5.3-4.5,10-6,16.8-5.2
		c7.1,0.8,11.7,3.6,15.1,8.9c3.7,5.9,51.3,95.1,52.4,98.3c1.4,3.9-0.2,10.4-3.2,13.5C329.7,4877.3,321.7,4877.4,317.2,4872.9z"/>
	<path class="st0" d="M162.2,4818.1c-5.2-4.3-5.6-11.7-0.8-16.4c2.9-3,3.8-3.2,18.3-3.2h15.1l3.3,3.9c4.5,5.2,4.3,10.5-0.4,15.3
		c-3.7,3.7-3.9,3.7-17.7,3.7C166.9,4821.4,165.9,4821.3,162.2,4818.1z"/>
	<path class="st0" d="M344.5,4817.9c-5.2-4.3-5.6-11.7-0.8-16.4c2.9-3,3.8-3.2,18.3-3.2h15.1l3.3,3.9c4.5,5.2,4.3,10.5-0.4,15.3
		c-3.7,3.7-3.9,3.7-17.7,3.7C349.2,4821.2,348.2,4821.1,344.5,4817.9z"/>
	<path class="st0" d="M275.1,4921.5c-4.3,5.2-11.7,5.6-16.4,0.8c-3-2.9-3.2-3.8-3.2-18.3v-15.1l3.9-3.3c5.2-4.5,10.5-4.3,15.3,0.4
		c3.7,3.7,3.7,3.9,3.7,17.7C278.4,4916.8,278.3,4917.8,275.1,4921.5z"/>
	<path class="st0" d="M203.3,4887.9c-6.7,0.6-12.2-4.3-12.1-11.1c-0.1-4.2,0.5-4.9,10.7-15.2l10.7-10.7l5.1,0.5
		c6.8,0.5,10.5,4.4,10.5,11.1c0,5.2-0.2,5.4-9.9,15.1C209,4887,208.2,4887.6,203.3,4887.9z"/>
</g>
</svg>
