<?xml version="1.0" encoding="utf-8"?>
<!-- Generator: Adobe Illustrator 21.1.0, SVG Export Plug-In . SVG Version: 6.00 Build 0)  -->
<svg version="1.1" id="Layer_1" xmlns="http://www.w3.org/2000/svg" xmlns:xlink="http://www.w3.org/1999/xlink" x="0px" y="0px"
	 viewBox="0 0 48 48" style="enable-background:new 0 0 48 48;" xml:space="preserve">
<style type="text/css">
	.st0{fill:none;}
	.st1{fill:#4D4D4D;}
</style>
<path class="st0" d="M0,0h48v48H0V0z"/>
<path class="st1" d="M36,32.2c-1.5,0-2.9,0.6-3.9,1.5l-14.3-8.3c0.1-0.5,0.2-0.9,0.2-1.4s-0.1-0.9-0.2-1.4l14.1-8.2
	c1.1,1,2.5,1.6,4.1,1.6c3.3,0,6-2.7,6-6s-2.7-6-6-6s-6,2.7-6,6c0,0.5,0.1,0.9,0.2,1.4l-14.1,8.2C15,18.6,13.6,18,12,18
	c-3.3,0-6,2.7-6,6s2.7,6,6,6c1.6,0,3-0.6,4.1-1.6l14.2,8.3c-0.1,0.4-0.2,0.9-0.2,1.3c0,3.2,2.6,5.8,5.8,5.8s5.8-2.6,5.8-5.8
	S39.2,32.2,36,32.2z"/>
</svg>
